<svg xmlns="http://www.w3.org/2000/svg" width="18.025" height="18" viewBox="0 0 18.025 18">
  <path id="Ic-Search" d="M22.493,23.75l-6.525-6.5a5.2,5.2,0,0,1-1.7.96,6.29,6.29,0,0,1-2.093.345,6.27,6.27,0,0,1-4.592-1.871A6.151,6.151,0,0,1,5.7,12.152,6.151,6.151,0,0,1,7.584,7.621,6.212,6.212,0,0,1,12.127,5.75a6.171,6.171,0,0,1,4.531,1.871A6.365,6.365,0,0,1,18.184,14.2a6.557,6.557,0,0,1-1.01,1.847l6.55,6.476ZM12.151,16.88a4.47,4.47,0,0,0,3.312-1.391,4.592,4.592,0,0,0,1.367-3.337,4.592,4.592,0,0,0-1.367-3.337,4.47,4.47,0,0,0-3.312-1.391A4.729,4.729,0,0,0,7.4,12.152a4.729,4.729,0,0,0,4.752,4.728Z" transform="translate(-5.7 -5.75)" fill="#3e3530"/>
</svg>
